<mxfile host="app.diagrams.net" modified="2024-05-23T13:17:38.718Z" agent="Mozilla/5.0 (Windows NT 10.0; Win64; x64) AppleWebKit/537.36 (KHTML, like Gecko) Chrome/124.0.0.0 Safari/537.36" version="24.4.6" etag="0NufXe3lyb_QyaJ4ia23" type="github">
  <diagram name="페이지-1" id="kCtHQj86CQd3Wgg6yOXM">
    <mxGraphModel>
      <root>
        <mxCell id="0" />
        <mxCell id="1" parent="0" />
      </root>
    </mxGraphModel>
  </diagram>
</mxfile>
